<?xml version="1.0" encoding="utf-8"?>
<!-- Generator: Adobe Illustrator 24.2.0, SVG Export Plug-In . SVG Version: 6.00 Build 0)  -->
<svg version="1.1" id="Layer_1" xmlns="http://www.w3.org/2000/svg" xmlns:xlink="http://www.w3.org/1999/xlink" x="0px" y="0px"
	 viewBox="0 0 288 72" style="enable-background:new 0 0 288 72;" xml:space="preserve">
<style type="text/css">
	.st0{fill:#FFFFFF;}
	.st1{fill:none;stroke:#FFFFFF;stroke-width:2;stroke-miterlimit:10;}
</style>
<g>
	<path class="st0" d="M35.4,26.7c0,5.7-3.8,9.2-9.6,9.2H18V17.5h7.8C31.7,17.5,35.4,21,35.4,26.7z M33.4,26.7c0-4.7-3.2-7.2-7.8-7.2
		h-5.7v14.4h5.7C30.2,33.9,33.4,31.5,33.4,26.7z"/>
	<path class="st0" d="M39.2,17.5l6.7,10l6.7-10h2.3l-8,12V36h-1.9v-6.5l-8.1-12H39.2z"/>
	<path class="st0" d="M75.7,17.5V36H74L60.5,20.3V36h-1.9V17.5h2.1l13.1,15.2V17.5H75.7z"/>
	<path class="st0" d="M94.8,31H83.9l-2.3,5h-2.1l8.8-18.5h2.2L99.3,36h-2.2L94.8,31z M93.8,29l-4.5-9.5L84.9,29H93.8z"/>
	<path class="st0" d="M123.3,17.5V36h-1.9V20.6L113.2,32h-0.1l-8.2-11.4V36H103V17.5h2.1l8,11.3l8-11.3H123.3z"/>
	<path class="st0" d="M129.4,36V17.5h1.9V36H129.4z"/>
	<path class="st0" d="M152.2,30.9L154,32c-1.5,2.8-4.3,4.5-8.2,4.5c-6,0-9.6-3.8-9.6-9.8s3.7-9.8,9.7-9.8c3.9,0,6.6,1.8,8.2,4.5
		l-1.8,1.1c-1.3-2.5-3.6-3.5-6.4-3.5c-4.6,0-7.7,2.6-7.7,7.7s3.1,7.7,7.7,7.7C148.6,34.5,150.9,33.4,152.2,30.9z"/>
	<path d="M183.9,26.7c0,5.7-3.8,9.2-9.6,9.2h-7.8V17.5h7.8C180.1,17.5,183.9,21,183.9,26.7z M181.9,26.7c0-4.7-3.2-7.2-7.8-7.2h-5.7
		v14.4h5.7C178.7,33.9,181.9,31.5,181.9,26.7z"/>
	<path d="M223.3,30.9l1.8,1.1c-1.5,2.8-4.3,4.5-8.2,4.5c-6,0-9.6-3.8-9.6-9.8s3.7-9.8,9.7-9.8c3.9,0,6.6,1.8,8.2,4.5l-1.8,1.1
		c-1.3-2.5-3.6-3.5-6.4-3.5c-4.6,0-7.7,2.6-7.7,7.7s3.1,7.7,7.7,7.7C219.8,34.5,222.1,33.4,223.3,30.9z"/>
	<path d="M228.2,26.7c0-6,3.7-9.8,9.8-9.8c6.1,0,9.8,3.8,9.8,9.8s-3.7,9.8-9.8,9.8S228.2,32.8,228.2,26.7z M245.8,26.7
		c0-5-3.1-7.7-7.8-7.7c-4.7,0-7.8,2.8-7.8,7.7s3.1,7.7,7.8,7.7S245.8,31.7,245.8,26.7z"/>
	<path d="M267.5,36l-5.3-7.1h-7.6V36h-1.9V17.5h10.8c3.6,0,6.1,2.1,6.1,5.7c0,3.2-2,5.2-5,5.6L270,36L267.5,36L267.5,36z
		 M263.2,26.8c2.6,0,4.3-1.1,4.3-3.6c0-2.5-1.7-3.6-4.3-3.6h-8.7v7.3C254.5,26.8,263.2,26.8,263.2,26.8z"/>
	<line class="st1" x1="18" y1="42.6" x2="270" y2="42.6"/>
	<g>
		<path class="st0" d="M203.3,33.9V36h-15.4V17.3H203v2.1h-13.2v6.1H201v2.1h-11.2v6.4L203.3,33.9L203.3,33.9z M195.7,15.1h-2.3
			l3.7-4h2.5L195.7,15.1z"/>
	</g>
	<g>
		<path class="st0" d="M68.1,52.9v3.3h6.1v0.6h-6.1v3.7h-0.6v-8.1h7.8v0.5L68.1,52.9L68.1,52.9z"/>
		<path class="st0" d="M82.7,56.9v2.2c0,0.5,0.1,0.9,0.3,1.2h-0.6c-0.2-0.3-0.3-0.7-0.3-1.1v0c-0.5,0.8-1.7,1.4-3.1,1.4
			c-1.4,0-3.4-0.6-3.4-2.2c0-1.7,1.9-2.2,3.4-2.2c1.4,0,2.6,0.6,3.1,1.4v-0.7c0-1.7-1-2.5-2.9-2.5c-1.1,0-2,0.3-2.8,0.8l-0.3-0.4
			c0.7-0.5,1.9-0.9,3.1-0.9C81.4,53.9,82.7,54.9,82.7,56.9z M82.1,58.2c-0.5-1-1.8-1.5-3.1-1.5c-1.1,0-2.8,0.4-2.8,1.7
			c0,1.3,1.7,1.7,2.8,1.7c1.3,0,2.6-0.5,3.1-1.5V58.2z"/>
		<path class="st0" d="M91.6,58.7c0,1.1-1.2,2-3.4,2c-1.6,0-2.8-0.5-3.7-1.4l0.4-0.3c0.8,0.8,1.9,1.2,3.3,1.2c1.7,0,2.7-0.6,2.7-1.4
			c0-0.9-1.1-1.1-2.9-1.3c-1.7-0.1-3.3-0.5-3.3-1.7c0-1.2,1.5-1.8,3.3-1.8c1.4,0,2.5,0.5,3.2,1.1l-0.4,0.4c-0.6-0.6-1.6-1-2.8-1
			c-1.2,0-2.6,0.4-2.6,1.3c0,0.9,1.3,1.1,2.9,1.2C90.2,57,91.6,57.5,91.6,58.7z"/>
		<path class="st0" d="M100.4,56.9v3.5h-0.6v-3.5c0-1.6-0.8-2.5-2.5-2.5c-1.4,0-2.5,0.6-3.1,1.9v4.1h-0.6v-8.5h0.6v3.7
			c0.6-1,1.8-1.7,3.2-1.7C99.4,53.9,100.4,55.2,100.4,56.9z"/>
		<path class="st0" d="M102.7,52.6c0-0.2,0.2-0.4,0.5-0.4c0.3,0,0.5,0.2,0.5,0.4c0,0.2-0.2,0.5-0.5,0.5
			C102.9,53.1,102.7,52.9,102.7,52.6z M103.5,60.4h-0.6v-6.3h0.6V60.4z"/>
		<path class="st0" d="M105.6,57.3c0-2,1.4-3.4,3.9-3.4s3.9,1.3,3.9,3.4s-1.4,3.4-3.9,3.4S105.6,59.3,105.6,57.3z M112.8,57.3
			c0-1.9-1.3-2.8-3.3-2.8s-3.3,1-3.3,2.8c0,1.8,1.3,2.8,3.3,2.8S112.8,59.1,112.8,57.3z"/>
		<path class="st0" d="M115.5,60.4v-6.3h0.6v1.4c0.6-1,1.8-1.7,3.2-1.7c2.1,0,3.1,1.3,3.1,3v3.5h-0.6v-3.5c0-1.6-0.8-2.5-2.5-2.5
			c-1.4,0-2.5,0.6-3.1,1.9v4.1C116.1,60.4,115.5,60.4,115.5,60.4z"/>
		<path class="st0" d="M129.5,54.1h3.1v0.5h-3.1v5.7h-0.6v-5.7h-1.4v-0.5h1.4v-0.8c0-1.2,0.9-1.8,1.9-1.8c0.7,0,1.4,0.2,1.9,0.6
			l-0.3,0.4c-0.5-0.4-1-0.5-1.5-0.5c-0.7,0-1.4,0.4-1.4,1.2L129.5,54.1L129.5,54.1z"/>
		<path class="st0" d="M133.2,57.3c0-2,1.4-3.4,3.9-3.4c2.5,0,3.9,1.3,3.9,3.4s-1.4,3.4-3.9,3.4C134.6,60.6,133.2,59.3,133.2,57.3z
			 M140.4,57.3c0-1.9-1.3-2.8-3.3-2.8c-2,0-3.3,1-3.3,2.8c0,1.8,1.3,2.8,3.3,2.8S140.4,59.1,140.4,57.3z"/>
		<path class="st0" d="M143.1,60.4v-6.3h0.6v1.7c0.5-1.1,1.9-1.8,3.4-1.8v0.5c-1.5,0-2.8,0.7-3.4,2v3.9
			C143.7,60.4,143.1,60.4,143.1,60.4z"/>
		<path class="st0" d="M156,60c-0.5,0.3-1.1,0.6-1.8,0.6c-1,0-2-0.5-2-1.7v-4.3h-1.4v-0.5h1.4v-1.5h0.6v1.5h3.1v0.5h-3.1v4.2
			c0,0.8,0.7,1.2,1.4,1.2c0.6,0,1-0.2,1.5-0.5L156,60z"/>
		<path class="st0" d="M164.3,56.9v3.5h-0.6v-3.5c0-1.6-0.8-2.5-2.5-2.5c-1.4,0-2.5,0.6-3.1,1.9v4.1h-0.6v-8.5h0.6v3.7
			c0.6-1,1.8-1.7,3.2-1.7C163.4,53.9,164.3,55.2,164.3,56.9z"/>
		<path class="st0" d="M173.9,57.2c0,0.1,0,0.1,0,0.1h-0.6H167c0,1.8,1.3,2.8,3.3,2.8c1.4,0,2.3-0.3,3.1-1l0.4,0.4
			c-0.9,0.8-1.9,1.2-3.5,1.2c-2.5,0-3.9-1.3-3.9-3.4c0-2,1.4-3.4,3.9-3.4C172.5,53.9,173.9,55.1,173.9,57.2z M167,56.8h6.3
			c-0.2-1.6-1.4-2.4-3.1-2.4C168.4,54.4,167.2,55.2,167,56.8z"/>
		<path class="st0" d="M186.8,56.9v3.5h-0.6v-3.5c0-1.6-0.8-2.5-2.5-2.5c-1.4,0-2.5,0.6-3.1,1.9v4.1h-0.6v-8.5h0.6v3.7
			c0.6-1,1.8-1.7,3.2-1.7C185.8,53.9,186.8,55.2,186.8,56.9z"/>
		<path class="st0" d="M188.8,57.3c0-2,1.4-3.4,3.9-3.4c2.5,0,3.9,1.3,3.9,3.4s-1.4,3.4-3.9,3.4C190.2,60.6,188.8,59.3,188.8,57.3z
			 M195.9,57.3c0-1.9-1.3-2.8-3.3-2.8c-2,0-3.3,1-3.3,2.8c0,1.8,1.3,2.8,3.3,2.8C194.6,60.1,195.9,59.1,195.9,57.3z"/>
		<path class="st0" d="M210.9,56.9v3.5h-0.6v-3.5c0-1.5-0.7-2.5-2.4-2.5c-1.3,0-2.4,0.7-2.9,1.9c0,0.2,0,0.3,0,0.5v3.5h-0.6v-3.5
			c0-1.5-0.7-2.5-2.4-2.5c-1.3,0-2.3,0.7-2.9,1.8v4.1h-0.6v-6.3h0.6v1.4c0.5-1,1.6-1.7,3-1.7c1.6,0,2.4,0.8,2.7,1.9
			c0.5-1.2,1.8-1.9,3.1-1.9C210.1,53.9,210.9,55.2,210.9,56.9z"/>
		<path class="st0" d="M220.5,57.2c0,0.1,0,0.1,0,0.1h-0.6h-6.4c0,1.8,1.3,2.8,3.3,2.8c1.4,0,2.3-0.3,3.1-1l0.4,0.4
			c-0.9,0.8-1.9,1.2-3.5,1.2c-2.5,0-3.9-1.3-3.9-3.4c0-2,1.4-3.4,3.9-3.4C219.1,53.9,220.5,55.1,220.5,57.2z M213.5,56.8h6.3
			c-0.2-1.6-1.4-2.4-3.1-2.4C215,54.4,213.7,55.2,213.5,56.8z"/>
	</g>
</g>
</svg>
