<?xml version="1.0" encoding="utf-8"?><!-- Generator: Adobe Illustrator 24.2.3, SVG Export Plug-In . SVG Version: 6.00 Build 0)  --><svg version="1.1" id="Layer_1" xmlns="http://www.w3.org/2000/svg" xmlns:xlink="http://www.w3.org/1999/xlink" x="0px" y="0px"	 viewBox="0 0 288 72" style="enable-background:new 0 0 288 72;" xml:space="preserve"><style type="text/css">	.st0{fill:#FFFFFF;}	.st1{fill:#27272A;}	.st2{fill:#B5332E;}	.st3{fill:#27272A;stroke:#27272A;stroke-width:2;stroke-miterlimit:10;}</style><rect class="st0" width="288" height="72"/><g>	<path class="st1" d="M35.41,26.73c0,5.68-3.76,9.24-9.63,9.24H18V17.48h7.79C31.66,17.48,35.41,21.05,35.41,26.73z M33.44,26.73		c0-4.73-3.23-7.18-7.79-7.18h-5.73v14.37h5.73C30.21,33.91,33.44,31.46,33.44,26.73z"/>	<path class="st1" d="M39.15,17.48l6.74,10.01l6.69-10.01h2.29L46.83,29.5v6.47H44.9V29.5l-8.07-12.02H39.15z"/>	<path class="st1" d="M75.73,17.48v18.49h-1.7L60.55,20.31v15.66h-1.88V17.48h2.09l13.09,15.24V17.48H75.73z"/>	<path class="st1" d="M94.77,31.01H83.95l-2.34,4.97h-2.13l8.82-18.49h2.15l8.82,18.49h-2.18L94.77,31.01z M93.83,29l-4.47-9.48		L84.89,29H93.83z"/>	<path class="st1" d="M123.3,17.48v18.49h-1.93V20.6l-8.16,11.38h-0.14l-8.16-11.38v15.37h-1.88V17.48h2.11l8.04,11.3l8.04-11.3		H123.3z"/>	<path class="st1" d="M129.35,35.97V17.48h1.92v18.49H129.35z"/>	<path class="st1" d="M152.18,30.93l1.83,1.06c-1.51,2.77-4.31,4.54-8.23,4.54c-5.98,0-9.65-3.8-9.65-9.8c0-6,3.67-9.8,9.72-9.8		c3.85,0,6.65,1.8,8.16,4.54l-1.83,1.06c-1.26-2.46-3.55-3.54-6.35-3.54c-4.65,0-7.72,2.64-7.72,7.74s3.07,7.74,7.72,7.74		C148.62,34.47,150.94,33.41,152.18,30.93z"/>	<path class="st2" d="M183.87,26.73c0,5.68-3.76,9.24-9.63,9.24h-7.79V17.48h7.79C180.11,17.48,183.87,21.05,183.87,26.73z		 M181.9,26.73c0-4.73-3.23-7.18-7.79-7.18h-5.73v14.37h5.73C178.67,33.91,181.9,31.46,181.9,26.73z"/>	<path class="st2" d="M223.33,30.93l1.83,1.06c-1.51,2.77-4.31,4.54-8.23,4.54c-5.98,0-9.65-3.8-9.65-9.8c0-6,3.67-9.8,9.72-9.8		c3.85,0,6.65,1.8,8.16,4.54l-1.83,1.06c-1.26-2.46-3.55-3.54-6.35-3.54c-4.65,0-7.72,2.64-7.72,7.74s3.07,7.74,7.72,7.74		C219.78,34.47,222.1,33.41,223.33,30.93z"/>	<path class="st2" d="M228.19,26.73c0-6.02,3.67-9.8,9.76-9.8c6.1,0,9.76,3.78,9.76,9.8c0,6.02-3.67,9.8-9.76,9.8		C231.86,36.53,228.19,32.75,228.19,26.73z M245.75,26.73c0-4.97-3.07-7.74-7.79-7.74c-4.72,0-7.79,2.77-7.79,7.74		c0,4.97,3.07,7.74,7.79,7.74C242.68,34.47,245.75,31.69,245.75,26.73z"/>	<path class="st2" d="M267.47,35.97l-5.32-7.08h-7.63v7.08h-1.95V17.48h10.77c3.58,0,6.14,2.06,6.14,5.71		c0,3.22-2.02,5.23-4.97,5.63l5.48,7.16H267.47z M263.21,26.83c2.59,0,4.31-1.14,4.31-3.64c0-2.51-1.72-3.65-4.31-3.65h-8.71v7.29		H263.21z"/>	<line class="st3" x1="18" y1="42.63" x2="269.99" y2="42.63"/>	<g>		<path class="st1" d="M203.26,33.89v2.08H187.9v-18.7h15.13v2.08h-13.23v6.07h11.21v2.08h-11.21v6.38H203.26z M195.72,15.13h-2.33			l3.74-4.01h2.48L195.72,15.13z"/>	</g>	<g>		<path class="st1" d="M68.12,52.87v3.3h6.14v0.56h-6.14v3.65H67.5v-8.07h7.78v0.55H68.12z"/>		<path class="st1" d="M82.74,56.93v2.22c0,0.48,0.08,0.86,0.31,1.23H82.4c-0.2-0.35-0.28-0.7-0.28-1.13v-0.03			c-0.48,0.82-1.67,1.39-3.11,1.39c-1.45,0-3.4-0.56-3.4-2.21c0-1.65,1.94-2.21,3.4-2.21c1.44,0,2.63,0.56,3.11,1.39v-0.66			c0-1.66-0.97-2.51-2.88-2.51c-1.13,0-2.03,0.32-2.75,0.78l-0.29-0.44c0.73-0.49,1.91-0.86,3.12-0.86			C81.44,53.9,82.74,54.92,82.74,56.93z M82.13,58.18c-0.52-1.05-1.81-1.5-3.07-1.5c-1.12,0-2.83,0.36-2.83,1.72			c0,1.35,1.72,1.71,2.83,1.71c1.26,0,2.56-0.46,3.07-1.5V58.18z"/>		<path class="st1" d="M91.58,58.65c0,1.1-1.16,1.97-3.36,1.97c-1.55,0-2.84-0.52-3.7-1.39l0.42-0.35c0.78,0.81,1.87,1.23,3.29,1.23			c1.69,0,2.74-0.56,2.74-1.42c0-0.88-1.1-1.14-2.9-1.3c-1.69-0.14-3.29-0.46-3.29-1.68c0-1.18,1.49-1.82,3.26-1.82			c1.37,0,2.48,0.48,3.16,1.08l-0.41,0.39c-0.64-0.6-1.55-0.97-2.77-0.98c-1.16-0.01-2.63,0.37-2.63,1.3c0,0.88,1.34,1.08,2.87,1.2			C90.21,57.05,91.58,57.49,91.58,58.65z"/>		<path class="st1" d="M100.37,56.89v3.49h-0.61v-3.46c0-1.58-0.8-2.5-2.53-2.5c-1.37,0-2.51,0.59-3.13,1.86v4.1h-0.61v-8.53h0.61			v3.71c0.6-1.04,1.76-1.67,3.23-1.67C99.41,53.9,100.37,55.15,100.37,56.89z"/>		<path class="st1" d="M102.71,52.63c0-0.25,0.22-0.44,0.5-0.44c0.29,0,0.49,0.18,0.49,0.44c0,0.25-0.2,0.45-0.49,0.45			C102.93,53.08,102.71,52.88,102.71,52.63z M103.53,60.38h-0.61v-6.26h0.61V60.38z"/>		<path class="st1" d="M105.62,57.26c0-2.05,1.44-3.36,3.9-3.36s3.9,1.31,3.9,3.36c0,2.05-1.44,3.36-3.9,3.36			S105.62,59.31,105.62,57.26z M112.79,57.26c0-1.86-1.32-2.83-3.28-2.83c-1.96,0-3.28,0.98-3.28,2.83c0,1.84,1.32,2.82,3.28,2.82			C111.47,60.08,112.79,59.1,112.79,57.26z"/>		<path class="st1" d="M115.48,60.38v-6.26h0.61v1.44c0.6-1.04,1.76-1.67,3.23-1.67c2.09,0,3.05,1.26,3.05,3v3.49h-0.61v-3.46			c0-1.58-0.8-2.5-2.53-2.5c-1.37,0-2.51,0.59-3.13,1.86v4.1H115.48z"/>		<path class="st1" d="M129.49,54.13h3.12v0.52h-3.12v5.74h-0.61v-5.74h-1.36v-0.52h1.36v-0.75c0-1.2,0.95-1.75,1.94-1.75			c0.68,0,1.38,0.2,1.87,0.61l-0.3,0.38c-0.47-0.38-0.96-0.52-1.52-0.52c-0.74,0-1.38,0.38-1.38,1.22V54.13z"/>		<path class="st1" d="M133.2,57.26c0-2.05,1.44-3.36,3.9-3.36c2.46,0,3.9,1.31,3.9,3.36c0,2.05-1.44,3.36-3.9,3.36			C134.64,60.63,133.2,59.31,133.2,57.26z M140.38,57.26c0-1.86-1.32-2.83-3.28-2.83c-1.96,0-3.28,0.98-3.28,2.83			c0,1.84,1.32,2.82,3.28,2.82C139.06,60.08,140.38,59.1,140.38,57.26z"/>		<path class="st1" d="M143.06,60.38v-6.26h0.61v1.65c0.52-1.09,1.91-1.75,3.37-1.75v0.53c-1.5,0-2.83,0.66-3.37,1.97v3.86H143.06z"			/>		<path class="st1" d="M155.96,60.03c-0.49,0.33-1.14,0.59-1.82,0.59c-1.03,0-1.97-0.55-1.97-1.69v-4.26h-1.36v-0.53h1.36v-1.45			h0.61v1.45h3.13v0.53h-3.13v4.18c0,0.83,0.66,1.24,1.44,1.24c0.55,0,1.03-0.21,1.5-0.48L155.96,60.03z"/>		<path class="st1" d="M164.33,56.89v3.49h-0.61v-3.46c0-1.58-0.8-2.5-2.53-2.5c-1.37,0-2.51,0.59-3.13,1.86v4.1h-0.61v-8.53h0.61			v3.71c0.6-1.04,1.76-1.67,3.23-1.67C163.37,53.9,164.33,55.15,164.33,56.89z"/>		<path class="st1" d="M173.94,57.16c0,0.06,0,0.09-0.01,0.12h-0.55h-6.42c0,1.85,1.28,2.83,3.28,2.83c1.39,0,2.29-0.32,3.08-1.05			l0.41,0.41c-0.89,0.8-1.94,1.15-3.52,1.15c-2.46,0-3.88-1.33-3.88-3.36c0-2.05,1.42-3.36,3.85-3.36			C172.51,53.9,173.91,55.12,173.94,57.16z M166.98,56.78h6.34c-0.23-1.59-1.42-2.37-3.13-2.37			C168.41,54.4,167.19,55.23,166.98,56.78z"/>		<path class="st1" d="M186.75,56.89v3.49h-0.61v-3.46c0-1.58-0.8-2.5-2.53-2.5c-1.37,0-2.51,0.59-3.13,1.86v4.1h-0.61v-8.53h0.61			v3.71c0.6-1.04,1.76-1.67,3.23-1.67C185.79,53.9,186.75,55.15,186.75,56.89z"/>		<path class="st1" d="M188.75,57.26c0-2.05,1.44-3.36,3.9-3.36c2.46,0,3.9,1.31,3.9,3.36c0,2.05-1.44,3.36-3.9,3.36			C190.19,60.63,188.75,59.31,188.75,57.26z M195.93,57.26c0-1.86-1.32-2.83-3.28-2.83c-1.96,0-3.28,0.98-3.28,2.83			c0,1.84,1.32,2.82,3.28,2.82C194.61,60.08,195.93,59.1,195.93,57.26z"/>		<path class="st1" d="M210.89,56.86v3.53h-0.6v-3.49c0-1.46-0.7-2.47-2.35-2.47c-1.33,0-2.35,0.69-2.92,1.91			c0.02,0.17,0.04,0.35,0.04,0.52v3.53h-0.61v-3.49c0-1.46-0.7-2.47-2.35-2.47c-1.33,0-2.32,0.66-2.87,1.83v4.13h-0.61v-6.26h0.61			v1.43c0.52-1,1.64-1.66,3-1.66c1.56,0,2.4,0.8,2.7,1.91c0.5-1.21,1.75-1.91,3.13-1.91C210.1,53.9,210.89,55.22,210.89,56.86z"/>		<path class="st1" d="M220.49,57.16c0,0.06,0,0.09-0.01,0.12h-0.55h-6.42c0,1.85,1.28,2.83,3.28,2.83c1.39,0,2.29-0.32,3.08-1.05			l0.41,0.41c-0.89,0.8-1.94,1.15-3.52,1.15c-2.46,0-3.88-1.33-3.88-3.36c0-2.05,1.42-3.36,3.85-3.36			C219.07,53.9,220.46,55.12,220.49,57.16z M213.53,56.78h6.34c-0.23-1.59-1.42-2.37-3.13-2.37			C214.96,54.4,213.74,55.23,213.53,56.78z"/>	</g></g></svg>